<svg width="20" height="20" viewBox="0 0 20 20" fill="none" xmlns="http://www.w3.org/2000/svg">
<path fill-rule="evenodd" clip-rule="evenodd" d="M10.8333 2.0528L10.8333 3.38746C10.8332 4.1262 10.8332 4.76271 10.9017 5.27243C10.9752 5.81869 11.1408 6.34232 11.5655 6.76703C11.9902 7.19175 12.5139 7.35737 13.0601 7.43082C13.5698 7.49935 14.2064 7.49931 14.9451 7.49927L16.0714 7.49927L16.1635 8.14391C16.4972 10.4801 16.4972 12.8518 16.1635 15.1879C15.9678 16.5576 14.8735 17.6364 13.5039 17.832C11.1978 18.1615 8.82939 18.1654 6.52333 17.8359C5.13601 17.6377 4.05851 16.526 3.90375 15.1332L3.8604 14.743C3.82417 14.417 3.80605 14.2539 3.78932 14.0912C3.50952 11.3704 3.50952 8.6281 3.78932 5.90731C3.80605 5.74458 3.82417 5.58155 3.8604 5.25549L3.97736 4.20283C4.08879 3.19998 4.86459 2.39955 5.86348 2.25685L7.6811 1.99719C8.73111 1.84719 9.79524 1.86693 10.8333 2.0528ZM13.3333 10.8326L6.66663 10.8326V9.16593L13.3333 9.16594V10.8326ZM6.66663 14.1659H10.8333V12.4993H6.66663V14.1659Z" fill="#BABBBE"/>
<path d="M12.5 2.53953V3.3326C12.5 4.14183 12.5017 4.66493 12.5535 5.05035C12.6021 5.4118 12.6806 5.52509 12.744 5.58852C12.8075 5.65196 12.9208 5.73042 13.2822 5.77901C13.6676 5.83083 14.1907 5.8326 15 5.8326H15.6303C15.5097 5.60695 15.363 5.395 15.1926 5.20136C15.1226 5.12184 15.0459 5.04513 14.8925 4.89173L12.707 2.7063C12.644 2.64324 12.5745 2.58738 12.5 2.53953Z" fill="#BABBBE"/>
</svg>
