<svg width="24" height="24" viewBox="0 0 24 24" fill="none" xmlns="http://www.w3.org/2000/svg">
<path d="M9.72727 4.09079C9.89514 3.41931 10.4194 2.89502 11.0909 2.72715C11.6878 2.57793 12.3122 2.57793 12.9091 2.72715C13.5806 2.89502 14.1049 3.41931 14.2727 4.09079C14.4219 4.68766 14.4219 5.31209 14.2727 5.90897C14.1049 6.58044 13.5806 7.10473 12.9091 7.2726C12.3122 7.42182 11.6878 7.42182 11.0909 7.2726C10.4194 7.10473 9.89514 6.58044 9.72727 5.90897C9.57805 5.31209 9.57805 4.68766 9.72727 4.09079Z" fill="#81858D"/>
<path d="M9.72727 11.0908C9.89514 10.4193 10.4194 9.89502 11.0909 9.72715C11.6878 9.57793 12.3122 9.57793 12.9091 9.72715C13.5806 9.89502 14.1049 10.4193 14.2727 11.0908C14.4219 11.6877 14.4219 12.3121 14.2727 12.909C14.1049 13.5804 13.5806 14.1047 12.9091 14.2726C12.3122 14.4218 11.6878 14.4218 11.0909 14.2726C10.4194 14.1047 9.89514 13.5804 9.72727 12.909C9.57805 12.3121 9.57805 11.6877 9.72727 11.0908Z" fill="#81858D"/>
<path d="M11.0909 16.7271C10.4194 16.895 9.89514 17.4193 9.72727 18.0908C9.57805 18.6877 9.57805 19.3121 9.72727 19.909C9.89514 20.5804 10.4194 21.1047 11.0909 21.2726C11.6878 21.4218 12.3122 21.4218 12.9091 21.2726C13.5806 21.1047 14.1049 20.5804 14.2727 19.909C14.4219 19.3121 14.4219 18.6877 14.2727 18.0908C14.1049 17.4193 13.5806 16.895 12.9091 16.7271C12.3122 16.5779 11.6878 16.5779 11.0909 16.7271Z" fill="#81858D"/>
</svg>
