<svg width="65" height="65" viewBox="0 0 65 65" fill="none" xmlns="http://www.w3.org/2000/svg">
<path d="M30.7857 24.0714C29.9763 24.3412 29.3412 24.9763 29.0714 25.7857C28.7005 26.8984 28.7005 28.1015 29.0714 29.2143C29.3412 30.0236 29.9763 30.6588 30.7857 30.9285C31.8985 31.2995 33.1015 31.2995 34.2143 30.9285C35.0237 30.6588 35.6588 30.0236 35.9286 29.2143C36.2995 28.1015 36.2995 26.8984 35.9286 25.7857C35.6588 24.9763 35.0237 24.3412 34.2143 24.0714C33.1015 23.7005 31.8985 23.7005 30.7857 24.0714Z" fill="#BABBBE"/>
<path d="M24.5008 37.7897C24.5 37.762 24.5 37.7303 24.5 37.667V36.8057C24.5 35.4188 25.3603 34.1774 26.6589 33.6904C30.4249 32.2781 34.5751 32.2781 38.3411 33.6904C39.6397 34.1774 40.5 35.4188 40.5 36.8057V37.667C40.5 37.7303 40.5 37.762 40.4992 37.7897C40.4725 38.756 39.7584 39.565 38.8028 39.7114C38.7755 39.7155 38.7441 39.7195 38.6813 39.7273C38.4542 39.7557 38.3405 39.7699 38.2273 39.7835C34.4228 40.2407 30.5772 40.2407 26.7727 39.7835C26.6595 39.7699 26.5459 39.7557 26.3189 39.7273C26.256 39.7195 26.2245 39.7155 26.1972 39.7114C25.2416 39.565 24.5275 38.756 24.5008 37.7897Z" fill="#BABBBE"/>
</svg>
