<svg width="25" height="25" viewBox="0 0 25 25" fill="none" xmlns="http://www.w3.org/2000/svg">
<g id="Solid/02 barbell diagonal">
<path id="Vector" d="M7.017 11.1554C6.69079 11.3729 6.28246 11.4275 5.91052 11.3036C4.39306 10.7977 3.20231 9.60699 2.69649 8.08953C2.57251 7.7176 2.6272 7.30926 2.84467 6.98305L2.96823 6.79772C3.28788 6.31823 3.63656 5.86025 4.01188 5.42615L2.79289 4.20717L4.2071 2.79295L5.42609 4.01194C5.86019 3.63662 6.31817 3.28795 6.79765 2.96829L6.98299 2.84473C7.3092 2.62726 7.71754 2.57257 8.08947 2.69655C9.60693 3.20237 10.7977 4.39312 11.3035 5.91058C11.4275 6.28252 11.3728 6.69085 11.1553 7.01706L11.0318 7.2024C10.7121 7.68189 10.3634 8.13987 9.98812 8.57396L15.4487 14.0346C15.9699 13.5761 16.5222 13.1519 17.1023 12.7652L17.2133 12.6912C17.3942 12.5706 17.6206 12.5403 17.8268 12.609C19.5096 13.1699 20.8301 14.4904 21.391 16.1732C21.4598 16.3794 21.4295 16.6059 21.3089 16.7867L21.2348 16.8978C20.8481 17.4779 20.4239 18.0301 19.9655 18.5513L21.2071 19.7929L19.7929 21.2072L18.5513 19.9655C18.0301 20.424 17.4778 20.8482 16.8977 21.2349L16.7867 21.3089C16.6058 21.4295 16.3794 21.4599 16.1731 21.3911C14.4904 20.8302 13.1699 19.5097 12.6089 17.8269C12.5402 17.6207 12.5705 17.3943 12.6911 17.2134L12.7651 17.1023C13.1519 16.5223 13.5761 15.97 14.0345 15.4488L8.5739 9.98818C8.13981 10.3635 7.68183 10.7122 7.20234 11.0318L7.017 11.1554Z" fill="#BABBBE"/>
</g>
</svg>
