<svg width="16" height="16" viewBox="0 0 16 16" fill="none" xmlns="http://www.w3.org/2000/svg">
<path d="M2.66669 1.33301V6.44997C2.66669 7.26427 3.18775 7.9872 3.96026 8.2447C4.1917 8.32185 4.42802 8.37897 4.66669 8.41605V14.6663H6.00002V8.41605C6.23869 8.37897 6.47501 8.32185 6.70645 8.2447C7.47896 7.9872 8.00002 7.26427 8.00002 6.44997V1.33301H6.66669V6.44997C6.66669 6.69036 6.51286 6.90378 6.28481 6.97979C6.19092 7.01109 6.09587 7.03763 6.00002 7.05941V1.33301H4.66669V7.05941C4.57083 7.03763 4.47578 7.01109 4.38189 6.97979C4.15384 6.90378 4.00002 6.69036 4.00002 6.44997V1.33301H2.66669Z" fill="white"/>
<path d="M10.4047 1.98555C11.2394 1.15081 12.6667 1.74201 12.6667 2.92251V14.6663H11.3334V10.6662C11.0222 10.6654 10.7485 10.6612 10.5162 10.6393C10.2118 10.6106 9.911 10.547 9.6301 10.3767C9.35448 10.2097 9.12332 9.97854 8.95628 9.70293C8.78604 9.42202 8.72245 9.12122 8.69376 8.81684C8.66666 8.52925 8.66667 8.17823 8.66669 7.77124L8.66669 6.1814C8.66669 4.60766 9.29186 3.09836 10.4047 1.98555Z" fill="white"/>
</svg>
