<svg width="40" height="40" viewBox="0 0 40 40" fill="none" xmlns="http://www.w3.org/2000/svg">
<rect x="2" y="2" width="36" height="36" rx="12" fill="#F97316"/>
<rect x="2" y="2" width="36" height="36" rx="12" stroke="white" stroke-width="4"/>
<path d="M18.4453 18.8964C19.4545 18.56 20.5455 18.56 21.5547 18.8964C21.735 18.9565 21.8766 19.098 21.9367 19.2784C22.2731 20.2876 22.2731 21.3786 21.9367 22.3877C21.8766 22.5681 21.735 22.7096 21.5547 22.7698C20.5455 23.1062 19.4545 23.1062 18.4453 22.7698C18.265 22.7096 18.1234 22.5681 18.0633 22.3877C17.7269 21.3786 17.7269 20.2876 18.0633 19.2784C18.1234 19.098 18.265 18.9565 18.4453 18.8964Z" fill="white"/>
<path fill-rule="evenodd" clip-rule="evenodd" d="M15.6309 14.9997C14.2709 14.9997 13.0758 15.9013 12.7021 17.2089L12.6696 17.3226C12.0163 19.6095 12.0691 22.0403 12.8212 24.2966C13.1402 25.2536 13.9259 25.9812 14.9045 26.2259L15.1194 26.2796C18.3238 27.0807 21.6762 27.0807 24.8806 26.2796L25.0955 26.2259C26.0741 25.9812 26.8598 25.2536 27.1788 24.2966C27.9309 22.0403 27.9837 19.6095 27.3304 17.3226L27.2979 17.2089C26.9242 15.9013 25.7291 14.9997 24.3691 14.9997H23.9C23.5527 14.9997 23.2352 14.8035 23.0799 14.4929L22.7022 13.7375C22.5727 13.4785 22.3457 13.2816 22.0711 13.1901C20.7267 12.742 19.2733 12.742 17.9289 13.1901C17.6543 13.2816 17.4273 13.4785 17.2978 13.7375L16.9201 14.4929C16.7648 14.8035 16.4473 14.9997 16.1 14.9997H15.6309ZM22.0817 17.3152C20.7304 16.8648 19.2696 16.8648 17.9183 17.3152C17.2402 17.5412 16.7082 18.0733 16.4822 18.7514C16.0317 20.1026 16.0317 21.5635 16.4822 22.9148C16.7082 23.5928 17.2402 24.1249 17.9183 24.3509C19.2696 24.8013 20.7304 24.8013 22.0817 24.3509C22.7598 24.1249 23.2918 23.5928 23.5178 22.9148C23.9683 21.5635 23.9683 20.1026 23.5178 18.7514C23.2918 18.0733 22.7598 17.5412 22.0817 17.3152Z" fill="white"/>
</svg>
