<svg width="16" height="16" viewBox="0 0 16 16" fill="none" xmlns="http://www.w3.org/2000/svg">
<path d="M8.70265 2.82516C7.85889 2.22248 6.71289 2.96347 6.91625 3.98023L7.20022 5.40013C7.24776 5.63781 7.17337 5.88352 7.00197 6.05491C6.75762 6.29927 6.37476 6.33718 6.08723 6.14549L5.43719 5.71213C4.87834 5.33956 4.11827 5.57563 3.86883 6.19924L3.35324 7.48822C2.8883 8.65056 2.77147 9.92303 3.01699 11.1506C3.26754 12.4033 4.17013 13.4258 5.38212 13.8298L5.6507 13.9193C7.17566 14.4276 8.82435 14.4276 10.3493 13.9193L10.5303 13.859C11.7965 13.4369 12.7394 12.3688 13.0011 11.0601L13.0519 10.8063C13.2464 9.83373 13.2464 8.83231 13.0519 7.85978C12.7629 6.41466 11.9346 5.13373 10.7354 4.27713L8.70265 2.82516Z" fill="white"/>
</svg>
