<svg width="16" height="16" viewBox="0 0 16 16" fill="none" xmlns="http://www.w3.org/2000/svg">
<g id="Solid fire">
<path id="Vector" d="M8.70265 2.82547C7.85889 2.22278 6.71289 2.96377 6.91625 3.98053L7.20022 5.40043C7.24776 5.63811 7.17337 5.88382 7.00197 6.05522C6.75762 6.29957 6.37476 6.33748 6.08723 6.1458L5.43719 5.71243C4.87834 5.33987 4.11827 5.57594 3.86883 6.19955L3.35324 7.48853C2.8883 8.65087 2.77147 9.92334 3.01699 11.1509C3.26754 12.4037 4.17013 13.4261 5.38212 13.8301L5.6507 13.9196C7.17566 14.4279 8.82435 14.4279 10.3493 13.9196L10.5303 13.8593C11.7965 13.4372 12.7394 12.3691 13.0011 11.0604L13.0519 10.8066C13.2464 9.83404 13.2464 8.83261 13.0519 7.86008C12.7629 6.41496 11.9346 5.13403 10.7354 4.27744L8.70265 2.82547Z" fill="#F97316"/>
</g>
</svg>
