<svg width="65" height="65" viewBox="0 0 65 65" fill="none" xmlns="http://www.w3.org/2000/svg">
<path d="M24.5 22.5V30.1754C24.5 31.3969 25.2816 32.4813 26.4404 32.8675C26.7875 32.9833 27.142 33.0689 27.5 33.1246V42.5H29.5V33.1246C29.858 33.0689 30.2125 32.9833 30.5596 32.8675C31.7184 32.4813 32.5 31.3969 32.5 30.1754V22.5H30.5V30.1754C30.5 30.536 30.2693 30.8562 29.9272 30.9702C29.7864 31.0171 29.6438 31.0569 29.5 31.0896V22.5H27.5V31.0896C27.3562 31.0569 27.2136 31.0171 27.0728 30.9702C26.7307 30.8562 26.5 30.536 26.5 30.1754V22.5H24.5Z" fill="#BABBBE"/>
<path d="M36.107 23.4788C37.3591 22.2267 39.5 23.1135 39.5 24.8843V42.5H37.5V36.4997C37.0333 36.4985 36.6227 36.4922 36.2742 36.4594C35.8177 36.4164 35.3665 36.321 34.9451 36.0656C34.5317 35.8151 34.1849 35.4683 33.9344 35.0549C33.679 34.6335 33.5836 34.1823 33.5406 33.7258C33.5 33.2944 33.5 32.7678 33.5 32.1573L33.5 29.7726C33.5 27.412 34.4378 25.148 36.107 23.4788Z" fill="#BABBBE"/>
</svg>
