<svg width="24" height="24" viewBox="0 0 24 24" fill="none" xmlns="http://www.w3.org/2000/svg">
<path fill-rule="evenodd" clip-rule="evenodd" d="M12.4472 4.10547L17.7199 6.74183L17.2848 7.61209L17.7199 6.74183C18.3855 7.07464 18.9253 7.61435 19.2581 8.27996C20.4289 10.6217 20.4289 13.3781 19.2581 15.7198C18.9253 16.3854 18.3855 16.9252 17.7199 17.258L12.4472 19.8943L11.5528 18.1055L16.8255 15.4691C17.1041 15.3298 17.3299 15.104 17.4692 14.8254C17.7603 14.2433 17.9561 13.6274 18.0566 12.9999H4V10.9999H18.0566C17.9561 10.3724 17.7603 9.75652 17.4692 9.17438C17.3299 8.89583 17.1041 8.66996 16.8255 8.53069L17.2727 7.63626L16.8255 8.53069L11.5528 5.89432L12.4472 4.10547Z" fill="#111214"/>
</svg>
