<svg width="24" height="24" viewBox="0 0 24 24" fill="none" xmlns="http://www.w3.org/2000/svg">
<path fill-rule="evenodd" clip-rule="evenodd" d="M14.9369 4.42902C15.6257 3.53978 16.1479 2.28293 15.959 1C14.8332 1.07824 13.5172 1.79857 12.7493 2.73748C12.0493 3.58822 11.4741 4.85376 11.6987 6.08205C12.9295 6.12055 14.1999 5.38283 14.9369 4.42902ZM21.0208 16.497C20.5282 17.5948 20.2912 18.0854 19.6567 19.0579C18.7715 20.4153 17.5234 22.1056 15.9753 22.118C14.6013 22.1329 14.247 21.2176 12.3817 21.2288C10.5163 21.2387 10.1275 22.1354 8.75097 22.1217C7.20413 22.1081 6.02146 20.583 5.13632 19.2255C2.65989 15.4326 2.3994 10.9802 3.9265 8.61184C5.01287 6.93024 6.72637 5.94662 8.33617 5.94662C9.97437 5.94662 11.0052 6.85075 12.3619 6.85075C13.6779 6.85075 14.4791 5.94413 16.3741 5.94413C17.8086 5.94413 19.3283 6.73029 20.4097 8.08649C16.8642 10.0413 17.4382 15.1345 21.0208 16.497Z" fill="white"/>
</svg>
