<svg width="56" height="56" viewBox="0 0 56 56" fill="none" xmlns="http://www.w3.org/2000/svg">
<rect width="56" height="56" rx="19" fill="#111214"/>
<path fill-rule="evenodd" clip-rule="evenodd" d="M28.4472 20.1055L33.7199 22.7418L33.2848 23.6121L33.7199 22.7418C34.3855 23.0746 34.9253 23.6143 35.2581 24.28C36.4289 26.6217 36.4289 29.3781 35.2581 31.7198C34.9253 32.3854 34.3855 32.9252 33.7199 33.258L28.4472 35.8943L27.5528 34.1055L32.8255 31.4691C33.1041 31.3298 33.3299 31.104 33.4692 30.8254C33.7603 30.2433 33.9561 29.6274 34.0566 28.9999H20V26.9999H34.0566C33.9561 26.3724 33.7603 25.7565 33.4692 25.1744C33.3299 24.8958 33.1041 24.67 32.8255 24.5307L33.2727 23.6363L32.8255 24.5307L27.5528 21.8943L28.4472 20.1055Z" fill="white"/>
</svg>
