<svg width="248" height="618" viewBox="0 0 248 618" fill="none" xmlns="http://www.w3.org/2000/svg">
<path d="M68 4V4C53.1205 4 45.6807 4 39.5767 5.63556C23.0123 10.074 10.074 23.0123 5.63556 39.5767C4 45.6807 4 53.1204 4 68V105.667" stroke="white" stroke-width="8"/>
<path d="M180 4V4C194.88 4 202.319 4 208.423 5.63556C224.988 10.074 237.926 23.0123 242.364 39.5767C244 45.6807 244 53.1204 244 68V105.667" stroke="white" stroke-width="8"/>
<path d="M68 614V614C53.1205 614 45.6807 614 39.5767 612.364C23.0123 607.926 10.074 594.988 5.63556 578.423C4 572.319 4 564.88 4 550V512.333" stroke="white" stroke-width="8"/>
<path d="M180 614V614C194.88 614 202.319 614 208.423 612.364C224.988 607.926 237.926 594.988 242.364 578.423C244 572.319 244 564.88 244 550V512.333" stroke="white" stroke-width="8"/>
</svg>
