<svg width="65" height="65" viewBox="0 0 65 65" fill="none" xmlns="http://www.w3.org/2000/svg">
<g clip-path="url(#clip0_395_54869)">
<rect x="0.5" y="0.5" width="64" height="64" rx="24" fill="#F3F3F4"/>
<path d="M23.432 62.636C23.6627 62.1747 23.778 61.944 23.9178 61.7494C24.3839 61.1008 25.0893 60.6648 25.8778 60.538C26.1144 60.5 26.3723 60.5 26.8881 60.5H38.1119C38.6277 60.5 38.8856 60.5 39.1222 60.538C39.9107 60.6648 40.6161 61.1008 41.0822 61.7494C41.222 61.944 41.3373 62.1747 41.568 62.636C41.7509 63.0018 41.8424 63.1848 41.8674 63.3301C41.9532 63.8279 41.6544 64.3115 41.1708 64.4574C41.0295 64.5 40.825 64.5 40.416 64.5H24.584C24.175 64.5 23.9705 64.5 23.8292 64.4574C23.3457 64.3115 23.0468 63.8279 23.1326 63.3301C23.1576 63.1848 23.2491 63.0018 23.432 62.636Z" fill="#F97316"/>
</g>
<defs>
<clipPath id="clip0_395_54869">
<rect x="0.5" y="0.5" width="64" height="64" rx="24" fill="white"/>
</clipPath>
</defs>
</svg>
