<svg width="49" height="48" viewBox="0 0 49 48" fill="none" xmlns="http://www.w3.org/2000/svg">
<rect x="0.5" width="48" height="48" rx="16" fill="#F3F3F4"/>
<path d="M25.5 16.4426C25.7474 16.4885 25.9924 16.5516 26.2332 16.6319C26.557 16.7398 26.8169 16.9848 26.9436 17.3017L28.5715 21.3714L30.4285 20.6286L28.8006 16.5589C28.4553 15.6958 27.7476 15.0285 26.8657 14.7345C25.3301 14.2226 23.6699 14.2226 22.1343 14.7345C21.2524 15.0285 20.5447 15.6958 20.1994 16.5589L18.5715 20.6286L20.4285 21.3714L22.0564 17.3017C22.1831 16.9848 22.443 16.7398 22.7668 16.6319C23.0076 16.5516 23.2526 16.4885 23.5 16.4426L23.5 30H25.5L25.5 16.4426Z" fill="#676C75"/>
<path d="M16.5 27V29.868C16.5 30.645 17.0397 31.3178 17.7982 31.4863C22.2122 32.4672 26.7878 32.4672 31.2018 31.4863C31.9603 31.3178 32.5 30.645 32.5 29.868V27H34.5V29.868C34.5 31.5824 33.3093 33.0668 31.6357 33.4387C26.9359 34.4831 22.0641 34.4831 17.3643 33.4387C15.6907 33.0668 14.5 31.5824 14.5 29.868V27H16.5Z" fill="#676C75"/>
<path d="M25.5 16.4426C25.7474 16.4885 25.9924 16.5516 26.2332 16.6319C26.557 16.7398 26.8169 16.9848 26.9436 17.3017L28.5715 21.3714L30.4285 20.6286L28.8006 16.5589C28.4553 15.6958 27.7476 15.0285 26.8657 14.7345C25.3301 14.2226 23.6699 14.2226 22.1343 14.7345C21.2524 15.0285 20.5447 15.6958 20.1994 16.5589L18.5715 20.6286L20.4285 21.3714L22.0564 17.3017C22.1831 16.9848 22.443 16.7398 22.7668 16.6319C23.0076 16.5516 23.2526 16.4885 23.5 16.4426L23.5 30H25.5L25.5 16.4426Z" stroke="#676C75"/>
<path d="M16.5 27V29.868C16.5 30.645 17.0397 31.3178 17.7982 31.4863C22.2122 32.4672 26.7878 32.4672 31.2018 31.4863C31.9603 31.3178 32.5 30.645 32.5 29.868V27H34.5V29.868C34.5 31.5824 33.3093 33.0668 31.6357 33.4387C26.9359 34.4831 22.0641 34.4831 17.3643 33.4387C15.6907 33.0668 14.5 31.5824 14.5 29.868V27H16.5Z" stroke="#676C75"/>
</svg>
